<?xml version="1.0" encoding="utf-8"?>
<!-- Generator: Adobe Illustrator 26.0.2, SVG Export Plug-In . SVG Version: 6.00 Build 0)  -->
<svg version="1.1" id="Layer_3" xmlns="http://www.w3.org/2000/svg" xmlns:xlink="http://www.w3.org/1999/xlink" x="0px" y="0px"
	 viewBox="0 0 64 64" style="enable-background:new 0 0 64 64;" xml:space="preserve">
<g>
	<path d="M31,5.723V12h2V5.723C33.595,5.376,34,4.738,34,4c0-1.105-0.895-2-2-2s-2,0.895-2,2C30,4.738,30.405,5.376,31,5.723z"/>
	<rect x="28" y="49" width="8" height="2"/>
	<rect x="22" y="59" width="20" height="2"/>
	<path d="M49,53H15c-1.103,0-2,0.897-2,2v6h7v-3c0-0.553,0.447-1,1-1h22c0.553,0,1,0.447,1,1v3h7v-6C51,53.897,50.103,53,49,53z"/>
	<circle cx="40" cy="32" r="1"/>
	<path d="M7,57h4v-2H9C7.897,55,7,55.897,7,57z"/>
	<path d="M7,26v12c0,1.103,0.897,2,2,2h2V24H9C7.897,24,7,24.897,7,26z"/>
	<rect x="7" y="59" width="4" height="2"/>
	<circle cx="32" cy="32" r="1"/>
	<path d="M45,14c0-0.552-0.448-1-1-1H20c-0.552,0-1,0.448-1,1v1h26V14z"/>
	<path d="M48,17H16c-1.654,0-3,1.346-3,3v24c0,1.654,1.346,3,3,3h32c1.654,0,3-1.346,3-3V20C51,18.346,49.654,17,48,17z M49,44
		c0,0.553-0.447,1-1,1H16c-0.553,0-1-0.447-1-1V20c0-0.553,0.447-1,1-1h32c0.553,0,1,0.447,1,1V44z"/>
	<path d="M17,43h30V21H17V43z M40,29c1.654,0,3,1.346,3,3s-1.346,3-3,3s-3-1.346-3-3S38.346,29,40,29z M32,29c1.654,0,3,1.346,3,3
		s-1.346,3-3,3s-3-1.346-3-3S30.346,29,32,29z M24,29c1.654,0,3,1.346,3,3s-1.346,3-3,3s-3-1.346-3-3S22.346,29,24,29z"/>
	<rect x="53" y="59" width="4" height="2"/>
	<path d="M55,55h-2v2h4C57,55.897,56.103,55,55,55z"/>
	<circle cx="24" cy="32" r="1"/>
	<path d="M55,24h-2v16h2c1.103,0,2-0.897,2-2V26C57,24.897,56.103,24,55,24z"/>
</g>
</svg>
